<?xml version="1.0" encoding="utf-8"?>
<!-- Generator: Adobe Illustrator 16.0.0, SVG Export Plug-In . SVG Version: 6.00 Build 0)  -->
<!DOCTYPE svg PUBLIC "-//W3C//DTD SVG 1.1//EN" "http://www.w3.org/Graphics/SVG/1.1/DTD/svg11.dtd">
<svg version="1.1" id="Layer_1" xmlns="http://www.w3.org/2000/svg" xmlns:xlink="http://www.w3.org/1999/xlink" x="0px" y="0px"
	 width="178.025px" height="174.778px" viewBox="0 0 178.025 174.778" enable-background="new 0 0 178.025 174.778"
	 xml:space="preserve">
<g>
	<rect x="-44.628" y="-47.923" display="none" fill="#02385B" width="800" height="800"/>
	<g>
		<path fill="#FFCC00" d="M309.618-1.468L309.618-1.468c-3.469,0-6.308,2.838-6.308,6.308v19.975c0,3.469,2.838,6.308,6.308,6.308
			l0,0c3.469,0,6.308-2.838,6.308-6.308V4.84C315.926,1.37,313.087-1.468,309.618-1.468z"/>
		<path fill="#FFCC00" d="M247.633,24.552L247.633,24.552c-2.454,2.453-2.454,6.467,0,8.92l14.124,14.125
			c2.453,2.453,6.468,2.453,8.921,0l0,0c2.453-2.453,2.453-6.467,0-8.92l-14.125-14.125
			C254.101,22.099,250.086,22.099,247.633,24.552z"/>
		<path fill="#FFCC00" d="M369.244,22.307L369.244,22.307c-2.453-2.453-6.468-2.453-8.921,0l-14.125,14.125
			c-2.453,2.453-2.453,6.467,0,8.92l0,0c2.453,2.453,6.467,2.453,8.921,0l14.125-14.124
			C371.697,28.775,371.697,24.76,369.244,22.307z"/>
		<path fill="#FFCC00" d="M255.781,83.425L255.781,83.425c0-3.469-2.839-6.308-6.308-6.308h-19.975
			c-3.469,0-6.308,2.838-6.308,6.308l0,0c0,3.469,2.839,6.308,6.308,6.308h19.975C252.942,89.733,255.781,86.894,255.781,83.425z"/>
		<path fill="#FFCC00" d="M287.785,106.299c2.742,0,5.466,0.311,8.12,0.918c2.697-9.845,8.1-18.799,15.726-25.867
			c10.23-9.48,23.55-14.702,37.506-14.702c1.03,0,2.054,0.035,3.073,0.09c-6.667-17.005-23.223-29.046-42.592-29.046
			c-25.257,0-45.732,20.475-45.732,45.732c0,9.818,3.095,18.913,8.361,26.364C276.963,107.555,282.23,106.299,287.785,106.299z"/>
		<path fill="#FFCC00" d="M390.549,85.314c2.493-0.843,4.304-3.205,4.304-5.974c0-3.469-2.838-6.308-6.308-6.308h-13.56
			C380.857,76.135,386.131,80.292,390.549,85.314z"/>
		<path fill="#FFCC00" d="M251.366,142.719c0-6.236,1.578-12.11,4.352-17.247l-9.748,9.748c-2.453,2.453-2.453,6.467,0,8.92l0,0
			c1.501,1.501,3.585,2.079,5.54,1.743C251.417,144.838,251.366,143.783,251.366,142.719z"/>
	</g>
	<path fill="#EEF0F4" d="M449.836,134.572c0-20.26-16.424-36.683-36.683-36.683c-7.469,0-14.413,2.238-20.208,6.071
		c-7.054-17.262-24.009-29.426-43.809-29.426c-24.825,0-45.182,19.121-47.15,43.439c-4.183-2.406-9.029-3.789-14.202-3.789
		c-15.759,0-28.535,12.776-28.535,28.535c0,13.004,8.702,23.969,20.598,27.408c1.02,0.708,2.253,1.127,3.582,1.127h132.464
		c0.672,0,1.319-0.109,1.929-0.307C435.876,168.652,449.836,153.248,449.836,134.572z"/>
</g>
<g>
	<path fill="#CCCDCE" d="M684.221,79.379c-7.469,0-14.413,2.238-20.208,6.071c-7.054-17.262-24.009-29.427-43.809-29.427
		c-12.915,0-24.612,5.183-33.148,13.572c13.996,3.538,26.083,12.436,33.609,24.929c5.293-2.153,10.973-3.27,16.772-3.27
		c24.574,0,44.567,19.993,44.567,44.567c0,5.962-1.197,11.681-3.358,16.921h8.315c0.672,0,1.319-0.109,1.929-0.306
		c18.053-2.295,32.013-17.7,32.013-36.376C720.904,95.802,704.48,79.379,684.221,79.379z"/>
	<path fill="#EEF0F4" d="M674.121,135.823c0-20.259-16.424-36.683-36.683-36.683c-7.469,0-14.412,2.238-20.208,6.071
		c-7.054-17.262-24.009-29.426-43.809-29.426c-24.825,0-45.182,19.122-47.15,43.439c-4.184-2.406-9.029-3.789-14.201-3.789
		c-15.76,0-28.535,12.776-28.535,28.535c0,13.004,8.702,23.969,20.598,27.408c1.02,0.708,2.254,1.127,3.582,1.127h132.465
		c0.672,0,1.319-0.109,1.929-0.306C660.161,169.903,674.121,154.499,674.121,135.823z"/>
</g>
<g>
	<path fill="#FFCC00" d="M128.525,125.676L128.525,125.676c-2.454,2.453-2.454,6.468,0,8.921l14.124,14.124
		c2.453,2.453,6.468,2.453,8.921,0l0,0c2.453-2.453,2.453-6.467,0-8.92l-14.125-14.125
		C134.993,123.223,130.978,123.223,128.525,125.676z"/>
	<path fill="#FFCC00" d="M86.428,142.188L86.428,142.188c-3.47,0-6.308,2.838-6.308,6.308v19.975c0,3.47,2.838,6.308,6.308,6.308
		l0,0c3.469,0,6.308-2.838,6.308-6.308v-19.975C92.736,145.026,89.897,142.188,86.428,142.188z"/>
	<path fill="#FFCC00" d="M86.428,0L86.428,0c-3.47,0-6.308,2.838-6.308,6.308v19.975c0,3.469,2.838,6.308,6.308,6.308l0,0
		c3.469,0,6.308-2.838,6.308-6.308V6.308C92.736,2.838,89.897,0,86.428,0z"/>
	<path fill="#FFCC00" d="M24.443,26.02L24.443,26.02c-2.453,2.453-2.453,6.467,0,8.92l14.124,14.125
		c2.454,2.453,6.468,2.453,8.921,0l0,0c2.453-2.453,2.453-6.468,0-8.921L33.363,26.02C30.91,23.567,26.896,23.567,24.443,26.02z"/>
	<path fill="#FFCC00" d="M149.73,21.068L149.73,21.068c-2.454-2.453-6.468-2.453-8.921,0l-14.125,14.125
		c-2.453,2.453-2.453,6.467,0,8.92l0,0c2.454,2.453,6.468,2.453,8.921,0l14.125-14.124C152.184,27.536,152.184,23.521,149.73,21.068
		z"/>
	<path fill="#FFCC00" d="M45.95,123.878L45.95,123.878c-2.453-2.453-6.467-2.453-8.92,0l-14.125,14.125
		c-2.453,2.453-2.453,6.467,0,8.92l0,0c2.453,2.453,6.468,2.453,8.921,0l14.124-14.124C48.404,130.345,48.404,126.331,45.95,123.878
		z"/>
	<path fill="#FFCC00" d="M32.59,84.893L32.59,84.893c0-3.469-2.838-6.308-6.308-6.308H6.308C2.838,78.585,0,81.424,0,84.893l0,0
		c0,3.469,2.838,6.308,6.308,6.308h19.975C29.752,91.201,32.59,88.362,32.59,84.893z"/>
	<path fill="#FFCC00" d="M178.025,80.642L178.025,80.642c0-3.47-2.839-6.308-6.308-6.308h-19.975c-3.47,0-6.308,2.838-6.308,6.308
		l0,0c0,3.469,2.838,6.308,6.308,6.308h19.975C175.186,86.95,178.025,84.111,178.025,80.642z"/>
	<circle fill="#FFCC00" cx="89.717" cy="86.783" r="48.491"/>
</g>
<g>
	<path fill="#CCCDCE" d="M188.029,596.404c0-20.259-16.423-36.683-36.683-36.683c-7.469,0-14.413,2.238-20.208,6.072
		c-7.054-17.263-24.009-29.427-43.809-29.427c-24.825,0-45.182,19.121-47.15,43.438c-4.183-2.405-9.029-3.788-14.201-3.788
		c-15.76,0-28.535,12.775-28.535,28.534c0,13.005,8.702,23.969,20.598,27.408c1.02,0.709,2.253,1.127,3.582,1.127h132.464
		c0.672,0,1.32-0.109,1.929-0.306C174.068,630.485,188.029,615.08,188.029,596.404z"/>
	<path fill="#1E9ACA" d="M29.39,662.824L29.39,662.824c-1.431-1.432-1.431-3.772,0-5.204l12.266-12.266
		c1.431-1.431,3.773-1.431,5.204,0l0,0c1.431,1.431,1.431,3.772,0,5.204l-12.266,12.266
		C33.163,664.254,30.821,664.254,29.39,662.824z"/>
	<path fill="#1E9ACA" d="M62.506,662.824L62.506,662.824c-1.431-1.432-1.431-3.772,0-5.204l12.266-12.266
		c1.431-1.431,3.773-1.431,5.204,0l0,0c1.431,1.431,1.431,3.772,0,5.204L67.71,662.824
		C66.279,664.254,63.937,664.254,62.506,662.824z"/>
	<path fill="#1E9ACA" d="M95.623,662.824L95.623,662.824c-1.431-1.432-1.431-3.772,0-5.204l12.266-12.266
		c1.431-1.431,3.772-1.431,5.204,0l0,0c1.431,1.431,1.431,3.772,0,5.204l-12.266,12.266
		C99.395,664.254,97.053,664.254,95.623,662.824z"/>
	<path fill="#1E9ACA" d="M128.738,662.824L128.738,662.824c-1.431-1.432-1.431-3.772,0-5.204l12.266-12.266
		c1.431-1.431,3.772-1.431,5.204,0l0,0c1.431,1.431,1.431,3.772,0,5.204l-12.266,12.266
		C132.511,664.254,130.169,664.254,128.738,662.824z"/>
	<path fill="#1E9ACA" d="M2.319,689.807L2.319,689.807c-1.431-1.431-1.431-3.772,0-5.204l12.266-12.266
		c1.431-1.431,3.772-1.431,5.204,0l0,0c1.431,1.431,1.431,3.772,0,5.204L7.522,689.807C6.092,691.238,3.75,691.238,2.319,689.807z"
		/>
	<path fill="#1E9ACA" d="M35.435,689.807L35.435,689.807c-1.431-1.431-1.431-3.772,0-5.204l12.266-12.266
		c1.431-1.431,3.773-1.431,5.204,0l0,0c1.431,1.431,1.431,3.772,0,5.204l-12.266,12.266
		C39.208,691.238,36.866,691.238,35.435,689.807z"/>
	<path fill="#1E9ACA" d="M68.551,689.807L68.551,689.807c-1.431-1.431-1.431-3.772,0-5.204l12.266-12.266
		c1.431-1.431,3.773-1.431,5.204,0l0,0c1.431,1.431,1.431,3.772,0,5.204l-12.266,12.266
		C72.324,691.238,69.982,691.238,68.551,689.807z"/>
	<path fill="#1E9ACA" d="M101.667,689.807L101.667,689.807c-1.431-1.431-1.431-3.772,0-5.204l12.266-12.266
		c1.431-1.431,3.773-1.431,5.204,0l0,0c1.431,1.431,1.431,3.772,0,5.204l-12.266,12.266
		C105.44,691.238,103.098,691.238,101.667,689.807z"/>
</g>
<g>
	<path fill="#CCCDCE" d="M184.305,328.324c0-20.259-16.423-36.683-36.683-36.683c-7.469,0-14.413,2.238-20.208,6.071
		c-7.054-17.262-24.009-29.426-43.809-29.426c-24.825,0-45.181,19.122-47.15,43.439c-4.183-2.406-9.029-3.789-14.201-3.789
		c-15.76,0-28.535,12.775-28.535,28.535c0,13.004,8.702,23.969,20.598,27.408c1.02,0.709,2.253,1.127,3.582,1.127h132.464
		c0.672,0,1.32-0.108,1.929-0.306C170.345,362.405,184.305,347,184.305,328.324z"/>
	<g>
		<path fill="#1E9ACA" d="M36.504,382.544L36.504,382.544c-2.024,0-3.68-1.656-3.68-3.68v-1.529c0-2.023,1.656-3.68,3.68-3.68l0,0
			c2.024,0,3.68,1.656,3.68,3.68v1.529C40.184,380.888,38.528,382.544,36.504,382.544z"/>
		<path fill="#1E9ACA" d="M69.62,382.544L69.62,382.544c-2.024,0-3.68-1.656-3.68-3.68v-1.529c0-2.023,1.656-3.68,3.68-3.68l0,0
			c2.023,0,3.68,1.656,3.68,3.68v1.529C73.3,380.888,71.644,382.544,69.62,382.544z"/>
		<path fill="#1E9ACA" d="M102.736,382.544L102.736,382.544c-2.024,0-3.68-1.656-3.68-3.68v-1.529c0-2.023,1.656-3.68,3.68-3.68l0,0
			c2.023,0,3.679,1.656,3.679,3.68v1.529C106.416,380.888,104.76,382.544,102.736,382.544z"/>
		<path fill="#1E9ACA" d="M135.853,382.544L135.853,382.544c-2.024,0-3.68-1.656-3.68-3.68v-1.529c0-2.023,1.656-3.68,3.68-3.68l0,0
			c2.023,0,3.679,1.656,3.679,3.68v1.529C139.532,380.888,137.876,382.544,135.853,382.544z"/>
		<path fill="#1E9ACA" d="M36.85,396.96L36.85,396.96c-2.024,0-3.68-1.656-3.68-3.68v-1.529c0-2.023,1.656-3.68,3.68-3.68l0,0
			c2.024,0,3.68,1.656,3.68,3.68v1.529C40.53,395.304,38.874,396.96,36.85,396.96z"/>
		<path fill="#1E9ACA" d="M69.966,396.96L69.966,396.96c-2.024,0-3.68-1.656-3.68-3.68v-1.529c0-2.023,1.656-3.68,3.68-3.68l0,0
			c2.024,0,3.68,1.656,3.68,3.68v1.529C73.646,395.304,71.99,396.96,69.966,396.96z"/>
		<path fill="#1E9ACA" d="M103.083,396.96L103.083,396.96c-2.024,0-3.68-1.656-3.68-3.68v-1.529c0-2.023,1.656-3.68,3.68-3.68l0,0
			c2.024,0,3.68,1.656,3.68,3.68v1.529C106.762,395.304,105.106,396.96,103.083,396.96z"/>
		<path fill="#1E9ACA" d="M136.199,396.96L136.199,396.96c-2.024,0-3.68-1.656-3.68-3.68v-1.529c0-2.023,1.656-3.68,3.68-3.68l0,0
			c2.023,0,3.68,1.656,3.68,3.68v1.529C139.878,395.304,138.222,396.96,136.199,396.96z"/>
		<path fill="#1E9ACA" d="M36.85,409.99L36.85,409.99c-2.024,0-3.68-1.655-3.68-3.68v-1.528c0-2.024,1.656-3.68,3.68-3.68l0,0
			c2.024,0,3.68,1.655,3.68,3.68v1.528C40.53,408.334,38.874,409.99,36.85,409.99z"/>
		<path fill="#1E9ACA" d="M69.966,409.99L69.966,409.99c-2.024,0-3.68-1.655-3.68-3.68v-1.528c0-2.024,1.656-3.68,3.68-3.68l0,0
			c2.024,0,3.68,1.655,3.68,3.68v1.528C73.646,408.334,71.99,409.99,69.966,409.99z"/>
		<path fill="#1E9ACA" d="M103.083,409.99L103.083,409.99c-2.024,0-3.68-1.655-3.68-3.68v-1.528c0-2.024,1.656-3.68,3.68-3.68l0,0
			c2.024,0,3.68,1.655,3.68,3.68v1.528C106.762,408.334,105.106,409.99,103.083,409.99z"/>
		<path fill="#1E9ACA" d="M136.199,409.99L136.199,409.99c-2.024,0-3.68-1.655-3.68-3.68v-1.528c0-2.024,1.656-3.68,3.68-3.68l0,0
			c2.023,0,3.68,1.655,3.68,3.68v1.528C139.878,408.334,138.222,409.99,136.199,409.99z"/>
	</g>
</g>
<g>
	<g>
		<g>
			<path fill="#FFCC00" d="M314.925,212.198L314.925,212.198c-3.469,0-6.308,2.838-6.308,6.308v19.975
				c0,3.469,2.838,6.308,6.308,6.308l0,0c3.469,0,6.308-2.838,6.308-6.308v-19.975C321.233,215.036,318.395,212.198,314.925,212.198
				z"/>
			<path fill="#FFCC00" d="M252.94,238.217L252.94,238.217c-2.453,2.454-2.453,6.468,0,8.921l14.125,14.124
				c2.453,2.454,6.467,2.454,8.92,0l0,0c2.454-2.453,2.454-6.467,0-8.92l-14.124-14.125
				C259.408,235.764,255.393,235.764,252.94,238.217z"/>
			<path fill="#FFCC00" d="M374.55,235.973L374.55,235.973c-2.453-2.453-6.468-2.453-8.921,0l-14.124,14.124
				c-2.453,2.454-2.453,6.468,0,8.921l0,0c2.453,2.453,6.468,2.453,8.921,0l14.124-14.125
				C377.003,242.44,377.003,238.426,374.55,235.973z"/>
			<path fill="#FFCC00" d="M261.087,297.09L261.087,297.09c0-3.469-2.838-6.308-6.308-6.308h-19.975
				c-3.47,0-6.308,2.838-6.308,6.308l0,0c0,3.47,2.838,6.308,6.308,6.308h19.975C258.249,303.398,261.087,300.56,261.087,297.09z"/>
			<path fill="#FFCC00" d="M293.092,319.965c2.741,0,5.466,0.311,8.12,0.918c2.697-9.846,8.1-18.799,15.726-25.867
				c10.23-9.481,23.55-14.702,37.506-14.702c1.03,0,2.053,0.035,3.073,0.09c-6.667-17.005-23.223-29.046-42.592-29.046
				c-25.257,0-45.732,20.475-45.732,45.731c0,9.818,3.095,18.913,8.361,26.364C282.271,321.22,287.537,319.965,293.092,319.965z"/>
			<path fill="#FFCC00" d="M395.856,298.98c2.494-0.843,4.305-3.205,4.305-5.974c0-3.469-2.839-6.308-6.309-6.308h-13.559
				C386.164,289.801,391.438,293.958,395.856,298.98z"/>
			<path fill="#FFCC00" d="M256.672,356.385c0-6.236,1.578-12.11,4.352-17.247l-9.748,9.748c-2.453,2.453-2.453,6.467,0,8.92l0,0
				c1.501,1.501,3.585,2.079,5.54,1.743C256.724,358.503,256.672,357.449,256.672,356.385z"/>
		</g>
		<path fill="#EEF0F4" d="M455.143,348.237c0-20.259-16.423-36.683-36.683-36.683c-7.469,0-14.412,2.238-20.208,6.071
			c-7.054-17.262-24.009-29.426-43.808-29.426c-24.825,0-45.182,19.122-47.151,43.439c-4.183-2.406-9.029-3.789-14.201-3.789
			c-15.759,0-28.535,12.775-28.535,28.535c0,13.004,8.702,23.969,20.599,27.407c1.02,0.709,2.253,1.128,3.582,1.128h132.465
			c0.672,0,1.319-0.109,1.928-0.307C441.183,382.318,455.143,366.914,455.143,348.237z"/>
	</g>
	<path fill="#1E9ACA" d="M295.887,417.057L295.887,417.057c-1.431-1.431-1.431-3.772,0-5.204l12.266-12.266
		c1.431-1.431,3.773-1.431,5.204,0l0,0c1.431,1.431,1.431,3.772,0,5.204l-12.266,12.266
		C299.66,418.488,297.318,418.488,295.887,417.057z"/>
	<path fill="#1E9ACA" d="M329.003,417.057L329.003,417.057c-1.431-1.431-1.431-3.772,0-5.204l12.266-12.266
		c1.431-1.431,3.773-1.431,5.204,0l0,0c1.431,1.431,1.431,3.772,0,5.204l-12.266,12.266
		C332.776,418.488,330.434,418.488,329.003,417.057z"/>
	<path fill="#1E9ACA" d="M362.12,417.057L362.12,417.057c-1.432-1.431-1.432-3.772,0-5.204l12.266-12.266
		c1.431-1.431,3.772-1.431,5.204,0l0,0c1.431,1.431,1.431,3.772,0,5.204l-12.267,12.266
		C365.892,418.488,363.55,418.488,362.12,417.057z"/>
	<path fill="#1E9ACA" d="M395.236,417.057L395.236,417.057c-1.432-1.431-1.432-3.772,0-5.204l12.266-12.266
		c1.431-1.431,3.772-1.431,5.204,0l0,0c1.431,1.431,1.431,3.772,0,5.204l-12.267,12.266
		C399.008,418.488,396.667,418.488,395.236,417.057z"/>
	<path fill="#1E9ACA" d="M268.816,444.041L268.816,444.041c-1.431-1.431-1.431-3.772,0-5.203l12.266-12.267
		c1.431-1.431,3.773-1.431,5.204,0l0,0c1.431,1.432,1.431,3.773,0,5.204l-12.266,12.266
		C272.589,445.471,270.247,445.471,268.816,444.041z"/>
	<path fill="#1E9ACA" d="M301.932,444.041L301.932,444.041c-1.431-1.431-1.431-3.772,0-5.203l12.266-12.267
		c1.431-1.431,3.773-1.431,5.204,0l0,0c1.431,1.432,1.431,3.773,0,5.204l-12.266,12.266
		C305.705,445.471,303.363,445.471,301.932,444.041z"/>
	<path fill="#1E9ACA" d="M335.048,444.041L335.048,444.041c-1.431-1.431-1.431-3.772,0-5.203l12.266-12.267
		c1.431-1.431,3.773-1.431,5.204,0l0,0c1.431,1.432,1.431,3.773,0,5.204l-12.266,12.266
		C338.821,445.471,336.479,445.471,335.048,444.041z"/>
	<path fill="#1E9ACA" d="M368.165,444.041L368.165,444.041c-1.432-1.431-1.432-3.772,0-5.203l12.266-12.267
		c1.432-1.431,3.772-1.431,5.204,0l0,0c1.431,1.432,1.431,3.773,0,5.204l-12.267,12.266
		C371.937,445.471,369.595,445.471,368.165,444.041z"/>
</g>
<g>
	<path fill="#CCCDCE" d="M449.327,590.332c0-20.259-16.424-36.683-36.683-36.683c-7.469,0-14.412,2.238-20.208,6.072
		c-7.054-17.263-24.009-29.427-43.809-29.427c-24.825,0-45.182,19.121-47.15,43.438c-4.183-2.405-9.029-3.788-14.201-3.788
		c-15.76,0-28.535,12.775-28.535,28.534c0,13.005,8.702,23.969,20.598,27.408c1.02,0.709,2.253,1.127,3.582,1.127h132.464
		c0.672,0,1.319-0.109,1.929-0.306C435.367,624.413,449.327,609.008,449.327,590.332z"/>
	<polygon fill="#FFCC00" points="290.581,639.424 272.929,673.117 290.581,673.117 274.945,710.387 301.405,668.437 
		288.466,668.867 307.286,639.424 	"/>
	<polygon fill="#FFCC00" points="347.004,639.424 329.352,673.117 347.004,673.117 331.368,710.387 357.828,668.437 344.89,668.867 
		363.708,639.424 	"/>
	<polygon fill="#FFCC00" points="401.75,639.424 384.098,673.117 401.75,673.117 386.114,710.387 412.574,668.437 399.635,668.867 
		418.455,639.424 	"/>
</g>
<g>
	<path fill="#EEF0F4" d="M716.522,329.232c0-20.259-16.424-36.683-36.684-36.683c-7.469,0-14.412,2.238-20.207,6.072
		c-7.054-17.262-24.01-29.427-43.809-29.427c-24.825,0-45.182,19.122-47.15,43.439c-4.184-2.406-9.029-3.789-14.202-3.789
		c-15.759,0-28.534,12.776-28.534,28.535c0,13.004,8.701,23.968,20.598,27.408c1.02,0.708,2.254,1.127,3.582,1.127h132.465
		c0.672,0,1.319-0.108,1.928-0.306C702.561,363.313,716.522,347.908,716.522,329.232z"/>
	<g>
		<polygon fill="#1E9ACA" points="670.319,381.445 586.915,378.945 670.319,376.445 		"/>
		<polygon fill="#1E9ACA" points="583.411,381.445 554.325,378.945 583.411,376.445 		"/>
		<polygon fill="#1E9ACA" points="683.285,397.915 571.145,395.415 683.285,392.915 		"/>
		<polygon fill="#1E9ACA" points="566.94,397.915 534.349,395.415 566.94,392.915 		"/>
		<polygon fill="#1E9ACA" points="655.425,410.881 565.713,408.381 655.425,405.881 		"/>
		<polygon fill="#1E9ACA" points="559.931,411.582 522.435,409.082 559.931,406.582 		"/>
		<polygon fill="#1E9ACA" points="524.538,397.915 510.871,395.415 524.538,392.915 		"/>
		<polygon fill="#1E9ACA" points="549.593,381.445 527.166,378.945 549.593,376.445 		"/>
		<polygon fill="#1E9ACA" points="693.097,410.881 659.805,408.381 693.097,405.881 		"/>
		<polygon fill="#1E9ACA" points="515.426,411.582 477.929,409.082 515.426,406.582 		"/>
	</g>
</g>
<g>
	<g>
		<g>
			<path fill="#EEF0F4" d="M610.526,606.593c-0.727,0-1.314-0.589-1.314-1.314v-60.625c0-0.727,0.588-1.314,1.314-1.314
				c0.726,0,1.313,0.588,1.313,1.314v60.625C611.839,606.004,611.251,606.593,610.526,606.593z"/>
			<path fill="#EEF0F4" d="M610.526,557.882c-0.337,0-0.673-0.128-0.93-0.385c-0.514-0.514-0.514-1.346,0-1.858l9.987-9.987
				c0.513-0.514,1.345-0.514,1.858,0c0.514,0.513,0.514,1.345,0,1.858l-9.987,9.987
				C611.198,557.754,610.862,557.882,610.526,557.882z"/>
			<path fill="#EEF0F4" d="M610.526,557.882c-0.337,0-0.673-0.128-0.93-0.385l-9.549-9.55c-0.514-0.513-0.514-1.345,0-1.858
				c0.513-0.513,1.345-0.513,1.857,0l9.55,9.55c0.514,0.513,0.514,1.345,0,1.858C611.198,557.754,610.862,557.882,610.526,557.882z"
				/>
			<path fill="#EEF0F4" d="M610.526,577.353c-0.337,0-0.673-0.128-0.93-0.385c-0.514-0.513-0.514-1.345,0-1.858l7.271-7.271
				c0.513-0.513,1.346-0.513,1.858,0c0.514,0.514,0.514,1.346,0,1.858l-7.271,7.271
				C611.198,577.225,610.862,577.353,610.526,577.353z"/>
			<path fill="#EEF0F4" d="M610.526,577.2c-0.337,0-0.673-0.128-0.93-0.385l-6.965-6.965c-0.514-0.513-0.514-1.345,0-1.858
				c0.513-0.513,1.346-0.513,1.858,0l6.965,6.965c0.514,0.514,0.514,1.346,0,1.858C611.198,577.072,610.862,577.2,610.526,577.2z"/>
		</g>
		<g>
			<path fill="#EEF0F4" d="M610.569,667.962c-0.726,0-1.313-0.588-1.313-1.313v-60.625c0-0.727,0.588-1.314,1.313-1.314
				c0.727,0,1.314,0.588,1.314,1.314v60.625C611.883,667.375,611.295,667.962,610.569,667.962z"/>
			<path fill="#EEF0F4" d="M620.556,666.036c-0.336,0-0.673-0.129-0.929-0.385l-9.987-9.987c-0.514-0.514-0.514-1.346,0-1.858
				c0.513-0.514,1.346-0.514,1.858,0l9.987,9.987c0.513,0.513,0.513,1.345,0,1.858C621.229,665.907,620.893,666.036,620.556,666.036
				z"/>
			<path fill="#EEF0F4" d="M601.02,665.597c-0.336,0-0.673-0.128-0.93-0.385c-0.513-0.513-0.513-1.345,0-1.858l9.55-9.549
				c0.513-0.514,1.346-0.514,1.858,0c0.514,0.513,0.514,1.345,0,1.858l-9.55,9.549C601.693,665.469,601.356,665.597,601.02,665.597z
				"/>
			<path fill="#EEF0F4" d="M617.84,643.848c-0.336,0-0.672-0.128-0.929-0.385l-7.271-7.271c-0.514-0.513-0.514-1.345,0-1.858
				c0.513-0.513,1.346-0.513,1.858,0l7.271,7.271c0.513,0.514,0.513,1.346,0,1.858C618.513,643.72,618.177,643.848,617.84,643.848z"
				/>
			<path fill="#EEF0F4" d="M603.604,643.695c-0.336,0-0.672-0.128-0.929-0.385c-0.514-0.513-0.514-1.345,0-1.858l6.965-6.965
				c0.513-0.513,1.346-0.513,1.858,0c0.514,0.514,0.514,1.346,0,1.858l-6.965,6.965
				C604.277,643.567,603.941,643.695,603.604,643.695z"/>
		</g>
	</g>
	<g>
		<g>
			<path fill="#EEF0F4" d="M671.567,606.352h-60.625c-0.727,0-1.314-0.588-1.314-1.314c0-0.726,0.588-1.313,1.314-1.313h60.625
				c0.726,0,1.314,0.588,1.314,1.313C672.881,605.764,672.292,606.352,671.567,606.352z"/>
			<path fill="#EEF0F4" d="M669.639,616.339c-0.336,0-0.672-0.128-0.929-0.385l-9.987-9.987c-0.514-0.514-0.514-1.346,0-1.858
				c0.513-0.514,1.345-0.514,1.857,0l9.988,9.987c0.513,0.513,0.513,1.345,0,1.858C670.312,616.211,669.975,616.339,669.639,616.339
				z"/>
			<path fill="#EEF0F4" d="M659.652,606.352c-0.336,0-0.673-0.128-0.929-0.385c-0.514-0.514-0.514-1.346,0-1.858l9.549-9.55
				c0.514-0.513,1.346-0.513,1.858,0c0.514,0.514,0.514,1.346,0,1.858l-9.55,9.55C660.325,606.224,659.988,606.352,659.652,606.352z
				"/>
			<path fill="#EEF0F4" d="M647.453,613.624c-0.336,0-0.673-0.129-0.929-0.385l-7.271-7.271c-0.514-0.514-0.514-1.346,0-1.858
				c0.513-0.514,1.345-0.514,1.857,0l7.271,7.271c0.514,0.513,0.514,1.345,0,1.858C648.125,613.495,647.789,613.624,647.453,613.624
				z"/>
			<path fill="#EEF0F4" d="M640.334,606.352c-0.337,0-0.673-0.128-0.93-0.385c-0.513-0.514-0.513-1.346,0-1.858l6.965-6.965
				c0.514-0.514,1.346-0.514,1.858,0c0.514,0.513,0.514,1.345,0,1.858l-6.965,6.965C641.006,606.224,640.67,606.352,640.334,606.352
				z"/>
		</g>
		<g>
			<path fill="#EEF0F4" d="M610.197,606.396h-60.625c-0.727,0-1.314-0.589-1.314-1.314s0.588-1.314,1.314-1.314h60.625
				c0.726,0,1.314,0.589,1.314,1.314S610.922,606.396,610.197,606.396z"/>
			<path fill="#EEF0F4" d="M551.499,616.383c-0.336,0-0.672-0.129-0.929-0.385c-0.513-0.514-0.513-1.346,0-1.858l9.987-9.987
				c0.513-0.514,1.346-0.514,1.858,0c0.514,0.513,0.514,1.345,0,1.857l-9.987,9.988
				C552.171,616.254,551.835,616.383,551.499,616.383z"/>
			<path fill="#EEF0F4" d="M561.487,606.396c-0.337,0-0.673-0.129-0.93-0.386l-9.55-9.549c-0.513-0.513-0.513-1.345,0-1.858
				c0.514-0.513,1.346-0.513,1.858,0l9.55,9.55c0.514,0.513,0.514,1.345,0,1.857C562.159,606.267,561.823,606.396,561.487,606.396z"
				/>
			<path fill="#EEF0F4" d="M573.686,613.667c-0.336,0-0.673-0.129-0.93-0.385c-0.513-0.514-0.513-1.346,0-1.858l7.271-7.271
				c0.514-0.514,1.346-0.514,1.858,0c0.514,0.513,0.514,1.345,0,1.857l-7.271,7.272
				C574.359,613.539,574.022,613.667,573.686,613.667z"/>
			<path fill="#EEF0F4" d="M580.804,606.396c-0.336,0-0.673-0.129-0.929-0.386l-6.965-6.965c-0.514-0.513-0.514-1.345,0-1.857
				c0.513-0.514,1.345-0.514,1.857,0l6.965,6.965c0.514,0.513,0.514,1.345,0,1.857C581.477,606.267,581.14,606.396,580.804,606.396z
				"/>
		</g>
	</g>
	<g>
		<g>
			<path fill="#EEF0F4" d="M653.654,649.159c-0.336,0-0.672-0.128-0.929-0.385l-42.869-42.869c-0.513-0.513-0.513-1.345,0-1.858
				c0.513-0.513,1.346-0.513,1.858,0l42.869,42.869c0.513,0.513,0.513,1.345,0,1.858
				C654.327,649.031,653.991,649.159,653.654,649.159z"/>
			<path fill="#EEF0F4" d="M645.229,654.858c-0.726,0-1.314-0.588-1.314-1.314v-14.124c0-0.726,0.589-1.314,1.314-1.314
				s1.314,0.589,1.314,1.314v14.124C646.543,654.27,645.955,654.858,645.229,654.858z"/>
			<path fill="#EEF0F4" d="M658.734,640.734h-13.505c-0.726,0-1.314-0.589-1.314-1.314s0.589-1.314,1.314-1.314h13.505
				c0.726,0,1.313,0.589,1.313,1.314S659.459,640.734,658.734,640.734z"/>
			<path fill="#EEF0F4" d="M631.46,637.249c-0.726,0-1.313-0.588-1.313-1.313v-10.284c0-0.726,0.588-1.313,1.313-1.313
				c0.727,0,1.314,0.588,1.314,1.313v10.284C632.775,636.661,632.187,637.249,631.46,637.249z"/>
			<path fill="#EEF0F4" d="M641.418,627.074h-9.85c-0.726,0-1.314-0.588-1.314-1.314c0-0.726,0.589-1.313,1.314-1.313h9.85
				c0.727,0,1.314,0.588,1.314,1.313C642.733,626.486,642.145,627.074,641.418,627.074z"/>
		</g>
		<g>
			<path fill="#EEF0F4" d="M610.228,605.794c-0.336,0-0.673-0.129-0.93-0.385l-42.868-42.869c-0.514-0.513-0.514-1.345,0-1.858
				c0.513-0.513,1.346-0.513,1.858,0l42.868,42.869c0.514,0.513,0.514,1.345,0,1.858
				C610.901,605.666,610.564,605.794,610.228,605.794z"/>
			<path fill="#EEF0F4" d="M575.785,571.351H561.66c-0.726,0-1.313-0.589-1.313-1.314s0.588-1.313,1.313-1.313h14.125
				c0.726,0,1.313,0.588,1.313,1.313S576.51,571.351,575.785,571.351z"/>
			<path fill="#EEF0F4" d="M575.785,571.351c-0.727,0-1.314-0.589-1.314-1.314v-13.505c0-0.726,0.588-1.314,1.314-1.314
				c0.726,0,1.313,0.589,1.313,1.314v13.505C577.098,570.762,576.51,571.351,575.785,571.351z"/>
			<path fill="#EEF0F4" d="M589.552,585.119h-10.283c-0.726,0-1.314-0.588-1.314-1.313c0-0.727,0.589-1.314,1.314-1.314h10.283
				c0.726,0,1.314,0.588,1.314,1.314C590.867,584.531,590.278,585.119,589.552,585.119z"/>
			<path fill="#EEF0F4" d="M589.444,585.01c-0.726,0-1.313-0.588-1.313-1.313v-9.851c0-0.726,0.588-1.313,1.313-1.313
				c0.727,0,1.314,0.588,1.314,1.313v9.851C590.758,584.422,590.17,585.01,589.444,585.01z"/>
		</g>
	</g>
	<g>
		<g>
			<path fill="#EEF0F4" d="M610.879,605.763c-0.336,0-0.673-0.128-0.929-0.385c-0.514-0.513-0.514-1.345,0-1.858l42.868-42.868
				c0.514-0.514,1.345-0.514,1.858,0c0.514,0.513,0.514,1.345,0,1.858l-42.868,42.868
				C611.552,605.635,611.216,605.763,610.879,605.763z"/>
			<path fill="#EEF0F4" d="M659.448,571.32h-14.125c-0.726,0-1.313-0.588-1.313-1.314c0-0.726,0.588-1.313,1.313-1.313h14.125
				c0.726,0,1.314,0.588,1.314,1.313C660.762,570.732,660.173,571.32,659.448,571.32z"/>
			<path fill="#EEF0F4" d="M645.323,571.32c-0.726,0-1.313-0.588-1.313-1.314V556.5c0-0.726,0.588-1.313,1.313-1.313
				c0.727,0,1.314,0.588,1.314,1.313v13.505C646.637,570.732,646.049,571.32,645.323,571.32z"/>
			<path fill="#EEF0F4" d="M641.838,585.088h-10.283c-0.726,0-1.314-0.589-1.314-1.314s0.589-1.314,1.314-1.314h10.283
				c0.727,0,1.314,0.589,1.314,1.314S642.565,585.088,641.838,585.088z"/>
			<path fill="#EEF0F4" d="M631.664,584.98c-0.726,0-1.314-0.589-1.314-1.314v-9.85c0-0.726,0.589-1.314,1.314-1.314
				s1.314,0.589,1.314,1.314v9.85C632.978,584.391,632.389,584.98,631.664,584.98z"/>
		</g>
		<g>
			<path fill="#EEF0F4" d="M567.515,649.19c-0.336,0-0.673-0.129-0.929-0.386c-0.514-0.513-0.514-1.345,0-1.858l42.868-42.868
				c0.513-0.513,1.346-0.513,1.858,0c0.514,0.513,0.514,1.346,0,1.858l-42.868,42.868
				C568.188,649.061,567.852,649.19,567.515,649.19z"/>
			<path fill="#EEF0F4" d="M575.94,654.889c-0.726,0-1.313-0.589-1.313-1.314v-14.124c0-0.726,0.588-1.314,1.313-1.314
				c0.727,0,1.314,0.589,1.314,1.314v14.124C577.254,654.3,576.667,654.889,575.94,654.889z"/>
			<path fill="#EEF0F4" d="M575.94,640.765h-13.504c-0.727,0-1.314-0.589-1.314-1.314s0.588-1.314,1.314-1.314h13.504
				c0.727,0,1.314,0.589,1.314,1.314S576.667,640.765,575.94,640.765z"/>
			<path fill="#EEF0F4" d="M589.708,637.28c-0.726,0-1.314-0.588-1.314-1.314v-10.283c0-0.726,0.589-1.313,1.314-1.313
				s1.314,0.588,1.314,1.313v10.283C591.023,636.692,590.434,637.28,589.708,637.28z"/>
			<path fill="#EEF0F4" d="M589.6,627.105h-9.85c-0.726,0-1.314-0.589-1.314-1.314s0.589-1.313,1.314-1.313h9.85
				c0.726,0,1.314,0.588,1.314,1.313S590.326,627.105,589.6,627.105z"/>
		</g>
	</g>
</g>
</svg>
