<?xml version="1.0" encoding="utf-8"?>
<!-- Generator: Adobe Illustrator 16.0.0, SVG Export Plug-In . SVG Version: 6.00 Build 0)  -->
<!DOCTYPE svg PUBLIC "-//W3C//DTD SVG 1.1//EN" "http://www.w3.org/Graphics/SVG/1.1/DTD/svg11.dtd">
<svg version="1.1" id="Layer_1" xmlns="http://www.w3.org/2000/svg" xmlns:xlink="http://www.w3.org/1999/xlink" x="0px" y="0px"
	 width="226.646px" height="172.723px" viewBox="0 0 226.646 172.723" enable-background="new 0 0 226.646 172.723"
	 xml:space="preserve">
<g>
	<rect x="-267.818" y="-46.455" display="none" fill="#02385B" width="800" height="800"/>
	<g>
		<path fill="#FFCC00" d="M86.428,0L86.428,0c-3.469,0-6.308,2.838-6.308,6.308v19.975c0,3.469,2.838,6.308,6.308,6.308l0,0
			c3.469,0,6.308-2.838,6.308-6.308V6.308C92.736,2.838,89.897,0,86.428,0z"/>
		<path fill="#FFCC00" d="M24.443,26.02L24.443,26.02c-2.454,2.453-2.454,6.467,0,8.92l14.124,14.125
			c2.453,2.453,6.468,2.453,8.921,0l0,0c2.453-2.453,2.453-6.467,0-8.92L33.364,26.02C30.911,23.567,26.896,23.567,24.443,26.02z"/>
		<path fill="#FFCC00" d="M146.054,23.775L146.054,23.775c-2.453-2.453-6.468-2.453-8.921,0L123.008,37.9
			c-2.453,2.453-2.453,6.467,0,8.92l0,0c2.453,2.453,6.467,2.453,8.921,0l14.125-14.124
			C148.507,30.243,148.507,26.229,146.054,23.775z"/>
		<path fill="#FFCC00" d="M32.591,84.893L32.591,84.893c0-3.469-2.839-6.308-6.308-6.308H6.308C2.839,78.585,0,81.424,0,84.893l0,0
			c0,3.469,2.839,6.308,6.308,6.308h19.975C29.752,91.201,32.591,88.362,32.591,84.893z"/>
		<path fill="#FFCC00" d="M64.595,107.768c2.742,0,5.466,0.311,8.12,0.918c2.697-9.845,8.1-18.799,15.726-25.867
			c10.23-9.48,23.55-14.702,37.506-14.702c1.03,0,2.054,0.035,3.073,0.09c-6.667-17.005-23.223-29.046-42.592-29.046
			c-25.257,0-45.732,20.475-45.732,45.732c0,9.818,3.095,18.913,8.361,26.364C53.773,109.023,59.04,107.768,64.595,107.768z"/>
		<path fill="#FFCC00" d="M167.359,86.783c2.493-0.843,4.304-3.205,4.304-5.974c0-3.469-2.838-6.308-6.308-6.308h-13.56
			C157.667,77.604,162.941,81.76,167.359,86.783z"/>
		<path fill="#FFCC00" d="M28.176,144.188c0-6.236,1.578-12.11,4.352-17.247l-9.748,9.748c-2.453,2.453-2.453,6.467,0,8.92l0,0
			c1.501,1.501,3.585,2.079,5.54,1.743C28.227,146.306,28.176,145.251,28.176,144.188z"/>
	</g>
	<path fill="#EEF0F4" d="M226.646,136.04c0-20.26-16.424-36.683-36.683-36.683c-7.469,0-14.413,2.238-20.208,6.071
		c-7.054-17.262-24.009-29.426-43.809-29.426c-24.825,0-45.182,19.121-47.15,43.439c-4.183-2.406-9.029-3.789-14.202-3.789
		c-15.759,0-28.535,12.776-28.535,28.535c0,13.004,8.702,23.969,20.598,27.408c1.02,0.708,2.253,1.127,3.582,1.127h132.464
		c0.672,0,1.319-0.109,1.929-0.307C212.687,170.121,226.646,154.716,226.646,136.04z"/>
</g>
<g>
	<path fill="#CCCDCE" d="M461.031,80.848c-7.469,0-14.413,2.238-20.208,6.071c-7.054-17.262-24.009-29.427-43.809-29.427
		c-12.915,0-24.612,5.183-33.148,13.572c13.996,3.538,26.083,12.436,33.609,24.929c5.293-2.153,10.973-3.27,16.772-3.27
		c24.574,0,44.567,19.993,44.567,44.567c0,5.962-1.197,11.681-3.358,16.921h8.315c0.672,0,1.319-0.109,1.929-0.306
		c18.053-2.295,32.013-17.7,32.013-36.376C497.714,97.271,481.29,80.848,461.031,80.848z"/>
	<path fill="#EEF0F4" d="M450.931,137.291c0-20.259-16.424-36.683-36.683-36.683c-7.469,0-14.412,2.238-20.208,6.071
		c-7.054-17.262-24.009-29.426-43.809-29.426c-24.825,0-45.182,19.122-47.15,43.439c-4.184-2.406-9.029-3.789-14.201-3.789
		c-15.76,0-28.535,12.776-28.535,28.535c0,13.004,8.702,23.969,20.598,27.408c1.02,0.708,2.254,1.127,3.582,1.127h132.465
		c0.672,0,1.319-0.109,1.929-0.306C436.971,171.372,450.931,155.967,450.931,137.291z"/>
</g>
<g>
	<path fill="#FFCC00" d="M-94.665,127.145L-94.665,127.145c-2.454,2.453-2.454,6.468,0,8.921l14.124,14.124
		c2.453,2.453,6.468,2.453,8.921,0l0,0c2.453-2.453,2.453-6.467,0-8.92l-14.125-14.125
		C-88.197,124.691-92.212,124.691-94.665,127.145z"/>
	<path fill="#FFCC00" d="M-136.762,143.656L-136.762,143.656c-3.47,0-6.308,2.838-6.308,6.308v19.975
		c0,3.47,2.838,6.308,6.308,6.308l0,0c3.469,0,6.308-2.838,6.308-6.308v-19.975C-130.454,146.495-133.292,143.656-136.762,143.656z"
		/>
	<path fill="#FFCC00" d="M-136.762,1.468L-136.762,1.468c-3.47,0-6.308,2.838-6.308,6.308v19.975c0,3.469,2.838,6.308,6.308,6.308
		l0,0c3.469,0,6.308-2.838,6.308-6.308V7.776C-130.454,4.307-133.292,1.468-136.762,1.468z"/>
	<path fill="#FFCC00" d="M-198.747,27.488L-198.747,27.488c-2.453,2.453-2.453,6.467,0,8.92l14.124,14.125
		c2.454,2.453,6.468,2.453,8.921,0l0,0c2.453-2.453,2.453-6.468,0-8.921l-14.125-14.124
		C-192.28,25.035-196.294,25.035-198.747,27.488z"/>
	<path fill="#FFCC00" d="M-73.459,22.536L-73.459,22.536c-2.454-2.453-6.468-2.453-8.921,0l-14.125,14.125
		c-2.453,2.453-2.453,6.467,0,8.92l0,0c2.454,2.453,6.468,2.453,8.921,0l14.125-14.124C-71.006,29.004-71.006,24.989-73.459,22.536z
		"/>
	<path fill="#FFCC00" d="M-177.24,125.346L-177.24,125.346c-2.453-2.453-6.467-2.453-8.92,0l-14.125,14.125
		c-2.453,2.453-2.453,6.467,0,8.92l0,0c2.453,2.453,6.468,2.453,8.921,0l14.124-14.124
		C-174.786,131.813-174.786,127.799-177.24,125.346z"/>
	<path fill="#FFCC00" d="M-190.6,86.361L-190.6,86.361c0-3.469-2.838-6.308-6.308-6.308h-19.975c-3.469,0-6.308,2.839-6.308,6.308
		l0,0c0,3.469,2.838,6.308,6.308,6.308h19.975C-193.438,92.669-190.6,89.831-190.6,86.361z"/>
	<path fill="#FFCC00" d="M-45.165,82.11L-45.165,82.11c0-3.47-2.839-6.308-6.308-6.308h-19.975c-3.47,0-6.308,2.838-6.308,6.308l0,0
		c0,3.469,2.838,6.308,6.308,6.308h19.975C-48.004,88.418-45.165,85.58-45.165,82.11z"/>
	<circle fill="#FFCC00" cx="-133.473" cy="88.251" r="48.491"/>
</g>
<g>
	<path fill="#CCCDCE" d="M-35.161,597.872c0-20.259-16.423-36.683-36.683-36.683c-7.469,0-14.413,2.238-20.208,6.072
		c-7.054-17.263-24.009-29.427-43.809-29.427c-24.825,0-45.182,19.121-47.15,43.438c-4.183-2.405-9.029-3.788-14.201-3.788
		c-15.76,0-28.535,12.775-28.535,28.534c0,13.005,8.702,23.969,20.598,27.408c1.02,0.709,2.253,1.127,3.582,1.127h132.464
		c0.672,0,1.32-0.109,1.929-0.306C-49.122,631.953-35.161,616.548-35.161,597.872z"/>
	<path fill="#1E9ACA" d="M-193.8,664.292L-193.8,664.292c-1.431-1.432-1.431-3.772,0-5.204l12.266-12.266
		c1.431-1.431,3.773-1.431,5.204,0l0,0c1.431,1.431,1.431,3.772,0,5.204l-12.266,12.266
		C-190.027,665.723-192.369,665.723-193.8,664.292z"/>
	<path fill="#1E9ACA" d="M-160.684,664.292L-160.684,664.292c-1.431-1.432-1.431-3.772,0-5.204l12.266-12.266
		c1.431-1.431,3.773-1.431,5.204,0l0,0c1.431,1.431,1.431,3.772,0,5.204l-12.266,12.266
		C-156.911,665.723-159.253,665.723-160.684,664.292z"/>
	<path fill="#1E9ACA" d="M-127.567,664.292L-127.567,664.292c-1.431-1.432-1.431-3.772,0-5.204l12.266-12.266
		c1.431-1.431,3.772-1.431,5.204,0l0,0c1.431,1.431,1.431,3.772,0,5.204l-12.266,12.266
		C-123.795,665.723-126.137,665.723-127.567,664.292z"/>
	<path fill="#1E9ACA" d="M-94.452,664.292L-94.452,664.292c-1.431-1.432-1.431-3.772,0-5.204l12.266-12.266
		c1.431-1.431,3.772-1.431,5.204,0l0,0c1.431,1.431,1.431,3.772,0,5.204l-12.266,12.266
		C-90.679,665.723-93.021,665.723-94.452,664.292z"/>
	<path fill="#1E9ACA" d="M-220.871,691.275L-220.871,691.275c-1.431-1.431-1.431-3.772,0-5.204l12.266-12.266
		c1.431-1.431,3.772-1.431,5.204,0l0,0c1.431,1.431,1.431,3.772,0,5.204l-12.266,12.266
		C-217.098,692.706-219.44,692.706-220.871,691.275z"/>
	<path fill="#1E9ACA" d="M-187.755,691.275L-187.755,691.275c-1.431-1.431-1.431-3.772,0-5.204l12.266-12.266
		c1.431-1.431,3.773-1.431,5.204,0l0,0c1.431,1.431,1.431,3.772,0,5.204l-12.266,12.266
		C-183.982,692.706-186.324,692.706-187.755,691.275z"/>
	<path fill="#1E9ACA" d="M-154.639,691.275L-154.639,691.275c-1.431-1.431-1.431-3.772,0-5.204l12.266-12.266
		c1.431-1.431,3.773-1.431,5.204,0l0,0c1.431,1.431,1.431,3.772,0,5.204l-12.266,12.266
		C-150.866,692.706-153.208,692.706-154.639,691.275z"/>
	<path fill="#1E9ACA" d="M-121.522,691.275L-121.522,691.275c-1.431-1.431-1.431-3.772,0-5.204l12.266-12.266
		c1.431-1.431,3.773-1.431,5.204,0l0,0c1.431,1.431,1.431,3.772,0,5.204l-12.266,12.266
		C-117.75,692.706-120.092,692.706-121.522,691.275z"/>
</g>
<g>
	<path fill="#CCCDCE" d="M-38.885,329.792c0-20.259-16.423-36.683-36.683-36.683c-7.469,0-14.413,2.238-20.208,6.071
		c-7.054-17.262-24.009-29.426-43.809-29.426c-24.825,0-45.181,19.122-47.15,43.439c-4.183-2.406-9.029-3.789-14.201-3.789
		c-15.76,0-28.535,12.775-28.535,28.535c0,13.004,8.702,23.969,20.598,27.408c1.02,0.709,2.253,1.127,3.582,1.127h132.464
		c0.672,0,1.32-0.108,1.929-0.306C-52.845,363.873-38.885,348.469-38.885,329.792z"/>
	<g>
		<path fill="#1E9ACA" d="M-186.686,384.013L-186.686,384.013c-2.024,0-3.68-1.656-3.68-3.68v-1.529c0-2.023,1.656-3.68,3.68-3.68
			l0,0c2.024,0,3.68,1.656,3.68,3.68v1.529C-183.006,382.356-184.662,384.013-186.686,384.013z"/>
		<path fill="#1E9ACA" d="M-153.57,384.013L-153.57,384.013c-2.024,0-3.68-1.656-3.68-3.68v-1.529c0-2.023,1.656-3.68,3.68-3.68l0,0
			c2.023,0,3.68,1.656,3.68,3.68v1.529C-149.89,382.356-151.546,384.013-153.57,384.013z"/>
		<path fill="#1E9ACA" d="M-120.454,384.013L-120.454,384.013c-2.024,0-3.68-1.656-3.68-3.68v-1.529c0-2.023,1.656-3.68,3.68-3.68
			l0,0c2.023,0,3.679,1.656,3.679,3.68v1.529C-116.774,382.356-118.43,384.013-120.454,384.013z"/>
		<path fill="#1E9ACA" d="M-87.337,384.013L-87.337,384.013c-2.024,0-3.68-1.656-3.68-3.68v-1.529c0-2.023,1.656-3.68,3.68-3.68l0,0
			c2.023,0,3.679,1.656,3.679,3.68v1.529C-83.658,382.356-85.314,384.013-87.337,384.013z"/>
		<path fill="#1E9ACA" d="M-186.34,398.429L-186.34,398.429c-2.024,0-3.68-1.656-3.68-3.68v-1.529c0-2.023,1.656-3.68,3.68-3.68l0,0
			c2.024,0,3.68,1.656,3.68,3.68v1.529C-182.66,396.772-184.316,398.429-186.34,398.429z"/>
		<path fill="#1E9ACA" d="M-153.224,398.429L-153.224,398.429c-2.024,0-3.68-1.656-3.68-3.68v-1.529c0-2.023,1.656-3.68,3.68-3.68
			l0,0c2.024,0,3.68,1.656,3.68,3.68v1.529C-149.544,396.772-151.2,398.429-153.224,398.429z"/>
		<path fill="#1E9ACA" d="M-120.107,398.429L-120.107,398.429c-2.024,0-3.68-1.656-3.68-3.68v-1.529c0-2.023,1.656-3.68,3.68-3.68
			l0,0c2.024,0,3.68,1.656,3.68,3.68v1.529C-116.428,396.772-118.083,398.429-120.107,398.429z"/>
		<path fill="#1E9ACA" d="M-86.991,398.429L-86.991,398.429c-2.024,0-3.68-1.656-3.68-3.68v-1.529c0-2.023,1.656-3.68,3.68-3.68l0,0
			c2.023,0,3.68,1.656,3.68,3.68v1.529C-83.312,396.772-84.968,398.429-86.991,398.429z"/>
		<path fill="#1E9ACA" d="M-186.34,411.458L-186.34,411.458c-2.024,0-3.68-1.655-3.68-3.68v-1.528c0-2.024,1.656-3.68,3.68-3.68l0,0
			c2.024,0,3.68,1.655,3.68,3.68v1.528C-182.66,409.803-184.316,411.458-186.34,411.458z"/>
		<path fill="#1E9ACA" d="M-153.224,411.458L-153.224,411.458c-2.024,0-3.68-1.655-3.68-3.68v-1.528c0-2.024,1.656-3.68,3.68-3.68
			l0,0c2.024,0,3.68,1.655,3.68,3.68v1.528C-149.544,409.803-151.2,411.458-153.224,411.458z"/>
		<path fill="#1E9ACA" d="M-120.107,411.458L-120.107,411.458c-2.024,0-3.68-1.655-3.68-3.68v-1.528c0-2.024,1.656-3.68,3.68-3.68
			l0,0c2.024,0,3.68,1.655,3.68,3.68v1.528C-116.428,409.803-118.083,411.458-120.107,411.458z"/>
		<path fill="#1E9ACA" d="M-86.991,411.458L-86.991,411.458c-2.024,0-3.68-1.655-3.68-3.68v-1.528c0-2.024,1.656-3.68,3.68-3.68l0,0
			c2.023,0,3.68,1.655,3.68,3.68v1.528C-83.312,409.803-84.968,411.458-86.991,411.458z"/>
	</g>
</g>
<g>
	<g>
		<g>
			<path fill="#FFCC00" d="M91.735,213.666L91.735,213.666c-3.469,0-6.308,2.838-6.308,6.308v19.975
				c0,3.469,2.838,6.308,6.308,6.308l0,0c3.469,0,6.308-2.838,6.308-6.308v-19.975C98.043,216.504,95.205,213.666,91.735,213.666z"
				/>
			<path fill="#FFCC00" d="M29.75,239.686L29.75,239.686c-2.453,2.454-2.453,6.468,0,8.921l14.125,14.124
				c2.453,2.454,6.467,2.454,8.92,0l0,0c2.454-2.453,2.454-6.467,0-8.92l-14.124-14.125
				C36.218,237.232,32.203,237.232,29.75,239.686z"/>
			<path fill="#FFCC00" d="M151.36,237.441L151.36,237.441c-2.453-2.453-6.468-2.453-8.921,0l-14.124,14.124
				c-2.453,2.454-2.453,6.468,0,8.921l0,0c2.453,2.453,6.468,2.453,8.921,0l14.124-14.125
				C153.813,243.909,153.813,239.895,151.36,237.441z"/>
			<path fill="#FFCC00" d="M37.897,298.559L37.897,298.559c0-3.469-2.838-6.308-6.308-6.308H11.615c-3.47,0-6.308,2.838-6.308,6.308
				l0,0c0,3.47,2.838,6.308,6.308,6.308H31.59C35.059,304.867,37.897,302.028,37.897,298.559z"/>
			<path fill="#FFCC00" d="M69.902,321.434c2.741,0,5.466,0.311,8.12,0.918c2.697-9.846,8.1-18.799,15.726-25.867
				c10.23-9.481,23.55-14.702,37.506-14.702c1.03,0,2.053,0.035,3.073,0.09c-6.667-17.005-23.223-29.046-42.592-29.046
				c-25.257,0-45.732,20.475-45.732,45.731c0,9.818,3.095,18.913,8.361,26.364C59.081,322.688,64.347,321.434,69.902,321.434z"/>
			<path fill="#FFCC00" d="M172.666,300.449c2.494-0.843,4.305-3.205,4.305-5.974c0-3.469-2.839-6.308-6.309-6.308h-13.559
				C162.974,291.27,168.248,295.426,172.666,300.449z"/>
			<path fill="#FFCC00" d="M33.482,357.854c0-6.236,1.578-12.11,4.352-17.247l-9.748,9.748c-2.453,2.453-2.453,6.467,0,8.92l0,0
				c1.501,1.501,3.585,2.079,5.54,1.743C33.534,359.972,33.482,358.917,33.482,357.854z"/>
		</g>
		<path fill="#EEF0F4" d="M231.953,349.706c0-20.259-16.423-36.683-36.683-36.683c-7.469,0-14.412,2.238-20.208,6.071
			c-7.054-17.262-24.009-29.426-43.808-29.426c-24.825,0-45.182,19.122-47.151,43.439c-4.183-2.406-9.029-3.789-14.201-3.789
			c-15.759,0-28.535,12.775-28.535,28.535c0,13.004,8.702,23.969,20.599,27.407c1.02,0.709,2.253,1.128,3.582,1.128h132.465
			c0.672,0,1.319-0.109,1.928-0.307C217.993,383.786,231.953,368.382,231.953,349.706z"/>
	</g>
	<path fill="#1E9ACA" d="M72.697,418.525L72.697,418.525c-1.431-1.431-1.431-3.772,0-5.204l12.266-12.266
		c1.431-1.431,3.773-1.431,5.204,0l0,0c1.431,1.431,1.431,3.772,0,5.204l-12.266,12.266
		C76.47,419.956,74.128,419.956,72.697,418.525z"/>
	<path fill="#1E9ACA" d="M105.813,418.525L105.813,418.525c-1.431-1.431-1.431-3.772,0-5.204l12.266-12.266
		c1.431-1.431,3.773-1.431,5.204,0l0,0c1.431,1.431,1.431,3.772,0,5.204l-12.266,12.266
		C109.586,419.956,107.244,419.956,105.813,418.525z"/>
	<path fill="#1E9ACA" d="M138.93,418.525L138.93,418.525c-1.432-1.431-1.432-3.772,0-5.204l12.266-12.266
		c1.431-1.431,3.772-1.431,5.204,0l0,0c1.431,1.431,1.431,3.772,0,5.204l-12.267,12.266
		C142.702,419.956,140.36,419.956,138.93,418.525z"/>
	<path fill="#1E9ACA" d="M172.046,418.525L172.046,418.525c-1.432-1.431-1.432-3.772,0-5.204l12.266-12.266
		c1.431-1.431,3.772-1.431,5.204,0l0,0c1.431,1.431,1.431,3.772,0,5.204l-12.267,12.266
		C175.818,419.956,173.477,419.956,172.046,418.525z"/>
	<path fill="#1E9ACA" d="M45.626,445.509L45.626,445.509c-1.431-1.431-1.431-3.772,0-5.203l12.266-12.267
		c1.431-1.431,3.773-1.431,5.204,0l0,0c1.431,1.432,1.431,3.773,0,5.204L50.83,445.509
		C49.399,446.939,47.057,446.939,45.626,445.509z"/>
	<path fill="#1E9ACA" d="M78.742,445.509L78.742,445.509c-1.431-1.431-1.431-3.772,0-5.203l12.266-12.267
		c1.431-1.431,3.773-1.431,5.204,0l0,0c1.431,1.432,1.431,3.773,0,5.204l-12.266,12.266
		C82.515,446.939,80.173,446.939,78.742,445.509z"/>
	<path fill="#1E9ACA" d="M111.858,445.509L111.858,445.509c-1.431-1.431-1.431-3.772,0-5.203l12.266-12.267
		c1.431-1.431,3.773-1.431,5.204,0l0,0c1.431,1.432,1.431,3.773,0,5.204l-12.266,12.266
		C115.631,446.939,113.29,446.939,111.858,445.509z"/>
	<path fill="#1E9ACA" d="M144.975,445.509L144.975,445.509c-1.432-1.431-1.432-3.772,0-5.203l12.266-12.267
		c1.432-1.431,3.772-1.431,5.204,0l0,0c1.431,1.432,1.431,3.773,0,5.204l-12.267,12.266
		C148.747,446.939,146.405,446.939,144.975,445.509z"/>
</g>
<g>
	<path fill="#CCCDCE" d="M226.137,591.8c0-20.259-16.424-36.683-36.683-36.683c-7.469,0-14.412,2.238-20.208,6.072
		c-7.054-17.263-24.009-29.427-43.809-29.427c-24.825,0-45.182,19.121-47.15,43.438c-4.183-2.405-9.029-3.788-14.201-3.788
		c-15.76,0-28.535,12.775-28.535,28.534c0,13.005,8.702,23.969,20.598,27.408c1.02,0.709,2.253,1.127,3.582,1.127h132.464
		c0.672,0,1.319-0.109,1.929-0.306C212.177,625.881,226.137,610.477,226.137,591.8z"/>
	<polygon fill="#FFCC00" points="67.391,640.893 49.739,674.585 67.391,674.585 51.755,711.855 78.215,669.905 65.276,670.335 
		84.096,640.893 	"/>
	<polygon fill="#FFCC00" points="123.814,640.893 106.162,674.585 123.814,674.585 108.178,711.855 134.638,669.905 121.7,670.335 
		140.519,640.893 	"/>
	<polygon fill="#FFCC00" points="178.56,640.893 160.908,674.585 178.56,674.585 162.924,711.855 189.384,669.905 176.445,670.335 
		195.265,640.893 	"/>
</g>
<g>
	<path fill="#EEF0F4" d="M493.332,330.7c0-20.259-16.424-36.683-36.684-36.683c-7.469,0-14.412,2.238-20.207,6.072
		c-7.054-17.262-24.01-29.427-43.809-29.427c-24.825,0-45.182,19.122-47.15,43.439c-4.184-2.406-9.029-3.789-14.202-3.789
		c-15.759,0-28.534,12.776-28.534,28.535c0,13.004,8.701,23.968,20.598,27.408c1.02,0.708,2.254,1.127,3.582,1.127h132.465
		c0.672,0,1.319-0.108,1.928-0.306C479.371,364.781,493.332,349.376,493.332,330.7z"/>
	<g>
		<polygon fill="#1E9ACA" points="447.129,382.913 363.725,380.413 447.129,377.913 		"/>
		<polygon fill="#1E9ACA" points="360.221,382.913 331.135,380.413 360.221,377.913 		"/>
		<polygon fill="#1E9ACA" points="460.095,399.383 347.955,396.883 460.095,394.383 		"/>
		<polygon fill="#1E9ACA" points="343.75,399.383 311.159,396.883 343.75,394.383 		"/>
		<polygon fill="#1E9ACA" points="432.235,412.35 342.523,409.85 432.235,407.35 		"/>
		<polygon fill="#1E9ACA" points="336.741,413.05 299.245,410.55 336.741,408.05 		"/>
		<polygon fill="#1E9ACA" points="301.348,399.383 287.681,396.883 301.348,394.383 		"/>
		<polygon fill="#1E9ACA" points="326.403,382.913 303.976,380.413 326.403,377.913 		"/>
		<polygon fill="#1E9ACA" points="469.907,412.35 436.615,409.85 469.907,407.35 		"/>
		<polygon fill="#1E9ACA" points="292.236,413.05 254.739,410.55 292.236,408.05 		"/>
	</g>
</g>
<g>
	<g>
		<g>
			<path fill="#EEF0F4" d="M387.336,608.062c-0.727,0-1.314-0.589-1.314-1.314v-60.625c0-0.727,0.588-1.314,1.314-1.314
				c0.726,0,1.313,0.588,1.313,1.314v60.625C388.649,607.473,388.062,608.062,387.336,608.062z"/>
			<path fill="#EEF0F4" d="M387.336,559.351c-0.337,0-0.673-0.128-0.93-0.385c-0.514-0.514-0.514-1.346,0-1.858l9.987-9.987
				c0.513-0.514,1.345-0.514,1.858,0c0.514,0.513,0.514,1.345,0,1.858l-9.987,9.987
				C388.008,559.223,387.672,559.351,387.336,559.351z"/>
			<path fill="#EEF0F4" d="M387.336,559.351c-0.337,0-0.673-0.128-0.93-0.385l-9.549-9.55c-0.514-0.513-0.514-1.345,0-1.858
				c0.513-0.513,1.345-0.513,1.857,0l9.55,9.55c0.514,0.513,0.514,1.345,0,1.858C388.008,559.223,387.672,559.351,387.336,559.351z"
				/>
			<path fill="#EEF0F4" d="M387.336,578.821c-0.337,0-0.673-0.128-0.93-0.385c-0.514-0.513-0.514-1.345,0-1.858l7.271-7.271
				c0.513-0.513,1.346-0.513,1.858,0c0.514,0.514,0.514,1.346,0,1.858l-7.271,7.271
				C388.008,578.693,387.672,578.821,387.336,578.821z"/>
			<path fill="#EEF0F4" d="M387.336,578.668c-0.337,0-0.673-0.128-0.93-0.385l-6.965-6.965c-0.514-0.513-0.514-1.345,0-1.858
				c0.513-0.513,1.346-0.513,1.858,0l6.965,6.965c0.514,0.514,0.514,1.346,0,1.858C388.008,578.54,387.672,578.668,387.336,578.668z
				"/>
		</g>
		<g>
			<path fill="#EEF0F4" d="M387.379,669.431c-0.726,0-1.313-0.588-1.313-1.313v-60.625c0-0.727,0.588-1.314,1.313-1.314
				c0.727,0,1.314,0.588,1.314,1.314v60.625C388.693,668.843,388.105,669.431,387.379,669.431z"/>
			<path fill="#EEF0F4" d="M397.366,667.504c-0.336,0-0.673-0.129-0.929-0.385l-9.987-9.987c-0.514-0.514-0.514-1.346,0-1.858
				c0.513-0.514,1.346-0.514,1.858,0l9.987,9.987c0.513,0.513,0.513,1.345,0,1.858C398.039,667.375,397.703,667.504,397.366,667.504
				z"/>
			<path fill="#EEF0F4" d="M377.83,667.065c-0.336,0-0.673-0.128-0.93-0.385c-0.513-0.513-0.513-1.345,0-1.858l9.55-9.549
				c0.513-0.514,1.346-0.514,1.858,0c0.514,0.513,0.514,1.345,0,1.858l-9.55,9.549C378.503,666.938,378.166,667.065,377.83,667.065z
				"/>
			<path fill="#EEF0F4" d="M394.65,645.316c-0.336,0-0.672-0.128-0.929-0.385l-7.271-7.271c-0.514-0.513-0.514-1.345,0-1.858
				c0.513-0.513,1.346-0.513,1.858,0l7.271,7.271c0.513,0.514,0.513,1.346,0,1.858C395.323,645.188,394.987,645.316,394.65,645.316z
				"/>
			<path fill="#EEF0F4" d="M380.414,645.163c-0.336,0-0.672-0.128-0.929-0.385c-0.514-0.513-0.514-1.345,0-1.858l6.965-6.965
				c0.513-0.513,1.346-0.513,1.858,0c0.514,0.514,0.514,1.346,0,1.858l-6.965,6.965
				C381.087,645.035,380.751,645.163,380.414,645.163z"/>
		</g>
	</g>
	<g>
		<g>
			<path fill="#EEF0F4" d="M448.377,607.82h-60.625c-0.727,0-1.314-0.588-1.314-1.314c0-0.726,0.588-1.313,1.314-1.313h60.625
				c0.726,0,1.314,0.588,1.314,1.313C449.691,607.232,449.103,607.82,448.377,607.82z"/>
			<path fill="#EEF0F4" d="M446.449,617.808c-0.336,0-0.672-0.128-0.929-0.385l-9.987-9.987c-0.514-0.514-0.514-1.346,0-1.858
				c0.513-0.514,1.345-0.514,1.857,0l9.988,9.987c0.513,0.513,0.513,1.345,0,1.858C447.122,617.68,446.785,617.808,446.449,617.808z
				"/>
			<path fill="#EEF0F4" d="M436.462,607.82c-0.336,0-0.673-0.128-0.929-0.385c-0.514-0.514-0.514-1.346,0-1.858l9.549-9.55
				c0.514-0.513,1.346-0.513,1.858,0c0.514,0.514,0.514,1.346,0,1.858l-9.55,9.55C437.135,607.692,436.798,607.82,436.462,607.82z"
				/>
			<path fill="#EEF0F4" d="M424.263,615.092c-0.336,0-0.673-0.129-0.929-0.385l-7.271-7.271c-0.514-0.514-0.514-1.346,0-1.858
				c0.513-0.514,1.345-0.514,1.857,0l7.271,7.271c0.514,0.513,0.514,1.345,0,1.858C424.936,614.963,424.599,615.092,424.263,615.092
				z"/>
			<path fill="#EEF0F4" d="M417.145,607.82c-0.337,0-0.673-0.128-0.93-0.385c-0.513-0.514-0.513-1.346,0-1.858l6.965-6.965
				c0.514-0.514,1.346-0.514,1.858,0c0.514,0.513,0.514,1.345,0,1.858l-6.965,6.965C417.816,607.692,417.48,607.82,417.145,607.82z"
				/>
		</g>
		<g>
			<path fill="#EEF0F4" d="M387.007,607.864h-60.625c-0.727,0-1.314-0.589-1.314-1.314s0.588-1.314,1.314-1.314h60.625
				c0.726,0,1.314,0.589,1.314,1.314S387.732,607.864,387.007,607.864z"/>
			<path fill="#EEF0F4" d="M328.309,617.852c-0.336,0-0.672-0.129-0.929-0.385c-0.513-0.514-0.513-1.346,0-1.858l9.987-9.987
				c0.513-0.514,1.346-0.514,1.858,0c0.514,0.513,0.514,1.345,0,1.857l-9.987,9.988
				C328.981,617.723,328.646,617.852,328.309,617.852z"/>
			<path fill="#EEF0F4" d="M338.297,607.864c-0.337,0-0.673-0.129-0.93-0.386l-9.55-9.549c-0.513-0.513-0.513-1.345,0-1.858
				c0.514-0.513,1.346-0.513,1.858,0l9.55,9.55c0.514,0.513,0.514,1.345,0,1.857C338.969,607.735,338.633,607.864,338.297,607.864z"
				/>
			<path fill="#EEF0F4" d="M350.496,615.136c-0.336,0-0.673-0.129-0.93-0.385c-0.513-0.514-0.513-1.346,0-1.858l7.271-7.271
				c0.514-0.514,1.346-0.514,1.858,0c0.514,0.513,0.514,1.345,0,1.857l-7.271,7.272
				C351.169,615.007,350.832,615.136,350.496,615.136z"/>
			<path fill="#EEF0F4" d="M357.614,607.864c-0.336,0-0.673-0.129-0.929-0.386l-6.965-6.965c-0.514-0.513-0.514-1.345,0-1.857
				c0.513-0.514,1.345-0.514,1.857,0l6.965,6.965c0.514,0.513,0.514,1.345,0,1.857C358.287,607.735,357.95,607.864,357.614,607.864z
				"/>
		</g>
	</g>
	<g>
		<g>
			<path fill="#EEF0F4" d="M430.464,650.627c-0.336,0-0.672-0.128-0.929-0.385l-42.869-42.869c-0.513-0.513-0.513-1.345,0-1.858
				c0.513-0.513,1.346-0.513,1.858,0l42.869,42.869c0.513,0.513,0.513,1.345,0,1.858
				C431.137,650.499,430.801,650.627,430.464,650.627z"/>
			<path fill="#EEF0F4" d="M422.039,656.326c-0.726,0-1.314-0.588-1.314-1.314v-14.124c0-0.726,0.589-1.314,1.314-1.314
				s1.314,0.589,1.314,1.314v14.124C423.354,655.738,422.765,656.326,422.039,656.326z"/>
			<path fill="#EEF0F4" d="M435.544,642.202h-13.505c-0.726,0-1.314-0.589-1.314-1.314s0.589-1.314,1.314-1.314h13.505
				c0.726,0,1.313,0.589,1.313,1.314S436.27,642.202,435.544,642.202z"/>
			<path fill="#EEF0F4" d="M408.271,638.717c-0.726,0-1.313-0.588-1.313-1.313v-10.284c0-0.726,0.588-1.313,1.313-1.313
				c0.727,0,1.314,0.588,1.314,1.313v10.284C409.585,638.129,408.997,638.717,408.271,638.717z"/>
			<path fill="#EEF0F4" d="M418.229,628.542h-9.85c-0.726,0-1.314-0.588-1.314-1.314c0-0.726,0.589-1.313,1.314-1.313h9.85
				c0.727,0,1.314,0.588,1.314,1.313C419.543,627.954,418.955,628.542,418.229,628.542z"/>
		</g>
		<g>
			<path fill="#EEF0F4" d="M387.038,607.263c-0.336,0-0.673-0.129-0.93-0.385l-42.868-42.869c-0.514-0.513-0.514-1.345,0-1.858
				c0.513-0.513,1.346-0.513,1.858,0l42.868,42.869c0.514,0.513,0.514,1.345,0,1.858
				C387.711,607.134,387.374,607.263,387.038,607.263z"/>
			<path fill="#EEF0F4" d="M352.595,572.819H338.47c-0.726,0-1.313-0.589-1.313-1.314s0.588-1.313,1.313-1.313h14.125
				c0.726,0,1.313,0.588,1.313,1.313S353.32,572.819,352.595,572.819z"/>
			<path fill="#EEF0F4" d="M352.595,572.819c-0.727,0-1.314-0.589-1.314-1.314V558c0-0.726,0.588-1.314,1.314-1.314
				c0.726,0,1.313,0.589,1.313,1.314v13.505C353.908,572.23,353.32,572.819,352.595,572.819z"/>
			<path fill="#EEF0F4" d="M366.362,586.587h-10.283c-0.726,0-1.314-0.588-1.314-1.313c0-0.727,0.589-1.314,1.314-1.314h10.283
				c0.726,0,1.314,0.588,1.314,1.314C367.677,585.999,367.088,586.587,366.362,586.587z"/>
			<path fill="#EEF0F4" d="M366.254,586.479c-0.726,0-1.313-0.588-1.313-1.313v-9.851c0-0.726,0.588-1.313,1.313-1.313
				c0.727,0,1.314,0.588,1.314,1.313v9.851C367.568,585.891,366.98,586.479,366.254,586.479z"/>
		</g>
	</g>
	<g>
		<g>
			<path fill="#EEF0F4" d="M387.689,607.231c-0.336,0-0.673-0.128-0.929-0.385c-0.514-0.513-0.514-1.345,0-1.858l42.868-42.868
				c0.514-0.514,1.345-0.514,1.858,0c0.514,0.513,0.514,1.345,0,1.858l-42.868,42.868
				C388.362,607.104,388.026,607.231,387.689,607.231z"/>
			<path fill="#EEF0F4" d="M436.258,572.788h-14.125c-0.726,0-1.313-0.588-1.313-1.314c0-0.726,0.588-1.313,1.313-1.313h14.125
				c0.726,0,1.314,0.588,1.314,1.313C437.572,572.2,436.983,572.788,436.258,572.788z"/>
			<path fill="#EEF0F4" d="M422.133,572.788c-0.726,0-1.313-0.588-1.313-1.314v-13.505c0-0.726,0.588-1.313,1.313-1.313
				c0.727,0,1.314,0.588,1.314,1.313v13.505C423.447,572.2,422.859,572.788,422.133,572.788z"/>
			<path fill="#EEF0F4" d="M418.648,586.557h-10.283c-0.726,0-1.314-0.589-1.314-1.314s0.589-1.314,1.314-1.314h10.283
				c0.727,0,1.314,0.589,1.314,1.314S419.375,586.557,418.648,586.557z"/>
			<path fill="#EEF0F4" d="M408.474,586.448c-0.726,0-1.314-0.589-1.314-1.314v-9.85c0-0.726,0.589-1.314,1.314-1.314
				s1.314,0.589,1.314,1.314v9.85C409.788,585.859,409.199,586.448,408.474,586.448z"/>
		</g>
		<g>
			<path fill="#EEF0F4" d="M344.325,650.658c-0.336,0-0.673-0.129-0.929-0.386c-0.514-0.513-0.514-1.345,0-1.858l42.868-42.868
				c0.513-0.513,1.346-0.513,1.858,0c0.514,0.513,0.514,1.346,0,1.858l-42.868,42.868
				C344.998,650.529,344.662,650.658,344.325,650.658z"/>
			<path fill="#EEF0F4" d="M352.75,656.357c-0.726,0-1.313-0.589-1.313-1.314v-14.124c0-0.726,0.588-1.314,1.313-1.314
				c0.727,0,1.314,0.589,1.314,1.314v14.124C354.064,655.769,353.477,656.357,352.75,656.357z"/>
			<path fill="#EEF0F4" d="M352.75,642.233h-13.504c-0.727,0-1.314-0.589-1.314-1.314s0.588-1.314,1.314-1.314h13.504
				c0.727,0,1.314,0.589,1.314,1.314S353.477,642.233,352.75,642.233z"/>
			<path fill="#EEF0F4" d="M366.519,638.748c-0.726,0-1.314-0.588-1.314-1.314V627.15c0-0.726,0.589-1.313,1.314-1.313
				s1.314,0.588,1.314,1.313v10.283C367.833,638.16,367.244,638.748,366.519,638.748z"/>
			<path fill="#EEF0F4" d="M366.41,628.573h-9.85c-0.726,0-1.314-0.589-1.314-1.314s0.589-1.313,1.314-1.313h9.85
				c0.726,0,1.314,0.588,1.314,1.313S367.136,628.573,366.41,628.573z"/>
		</g>
	</g>
</g>
</svg>
